<?xml version="1.0" ?><svg id="fox" style="enable-background:new 0 0 300 300;" version="1.1" viewBox="0 0 300 300" xml:space="preserve" xmlns="http://www.w3.org/2000/svg" xmlns:xlink="http://www.w3.org/1999/xlink"><g><path d="   M60.274,97.382L42.964,57.274c-2.625-6.079,0.295-8.908,6.543-6.306l47.255,19.674" style="fill-rule:evenodd;clip-rule:evenodd;fill:none;stroke:#000000;stroke-width:8;stroke-linecap:round;stroke-linejoin:round;stroke-miterlimit:10;"/><path d="   M249.733,102l19.304-44.726c2.625-6.079-0.295-8.908-6.543-6.306l-49.538,20.625" style="fill-rule:evenodd;clip-rule:evenodd;fill:none;stroke:#000000;stroke-width:8;stroke-linecap:round;stroke-linejoin:round;stroke-miterlimit:10;"/><path d="   M59.827,157.922L30,148.936l29.33-7.196c-3.563-6.18-5.5-12.824-5.5-19.74c0-33.136,44.456-60,99.295-60s99.295,26.864,99.295,60   c0,6.776-1.859,13.288-5.285,19.364L278,148.936l-30.347,9.143" style="fill-rule:evenodd;clip-rule:evenodd;fill:none;stroke:#000000;stroke-width:8;stroke-linecap:round;stroke-linejoin:round;stroke-miterlimit:10;"/><path d="   M149.621,147.697c-0.403-2.789-1.131-5.597-2.206-8.361c-6.481-16.656-23.113-25.386-37.15-19.498   c-14.036,5.888-20.161,24.166-13.68,40.826c0.459,1.18,0.969,2.319,1.525,3.417" style="fill-rule:evenodd;clip-rule:evenodd;fill:none;stroke:#000000;stroke-width:8;stroke-linecap:round;stroke-linejoin:round;stroke-miterlimit:10;"/><path d="   M162.373,147.737c0.402-2.802,1.132-5.624,2.212-8.401c6.481-16.656,23.113-25.386,37.15-19.498   c14.036,5.888,20.161,24.166,13.68,40.826c-0.539,1.385-1.148,2.715-1.819,3.987" style="fill-rule:evenodd;clip-rule:evenodd;fill:none;stroke:#000000;stroke-width:8;stroke-linecap:round;stroke-linejoin:round;stroke-miterlimit:10;"/><path d="   M199.474,157.366c1.583-2.033,2.526-4.589,2.526-7.366c0-6.628-5.372-12-12-12s-12,5.372-12,12" style="fill-rule:evenodd;clip-rule:evenodd;fill:none;stroke:#000000;stroke-width:8;stroke-linecap:round;stroke-linejoin:round;stroke-miterlimit:10;"/><path d="   M133.852,151.888C133.95,151.273,134,150.642,134,150c0-6.628-5.372-12-12-12s-12,5.372-12,12c0,2.79,0.952,5.357,2.548,7.395" style="fill-rule:evenodd;clip-rule:evenodd;fill:none;stroke:#000000;stroke-width:8;stroke-linecap:round;stroke-linejoin:round;stroke-miterlimit:10;"/><path d="   M137.988,243.274c-2.619-2.536-5.079-5.789-7.289-9.759l-19.534-35.088c-12.103-3.34-37.111-8.634-54.317-1.356l3.797-17.454   L42,183.721l25.987-32.341l18.228,11.316c3.735,2.318,9.903,2.578,13.852,0.698c0,0,23.422-13.393,53.933-13.393   c30.511,0,53.933,13.393,53.933,13.393c3.915,1.932,10.104,1.628,13.852-0.698l18.228-11.316L266,183.721l-18.644-4.104   l3.797,17.454c-18.603-7.87-46.324-1.041-56.997,2.125l-19.108,34.32c-1.531,2.749-3.181,5.155-4.92,7.216" style="fill-rule:evenodd;clip-rule:evenodd;fill:none;stroke:#000000;stroke-width:8;stroke-linecap:round;stroke-linejoin:round;stroke-miterlimit:10;"/><ellipse cx="154" cy="246" rx="16" ry="12" style="fill-rule:evenodd;clip-rule:evenodd;fill:none;stroke:#000000;stroke-width:8;stroke-linecap:round;stroke-linejoin:round;stroke-miterlimit:10;"/></g><g/><g/><g/><g/><g/><g/><g/><g/><g/><g/><g/><g/><g/><g/><g/></svg>